<svg id="Layer_1" data-name="Layer 1" xmlns="http://www.w3.org/2000/svg" viewBox="0 0 252 118.19">
  <g>
    <path d="M18.32,69.62V82.19a9.69,9.69,0,0,0-8.76-5,10.38,10.38,0,1,0,0,20.76,9.69,9.69,0,0,0,8.76-5.05v4.61h2V69.62ZM9.68,96a8.47,8.47,0,1,1,0-16.94A8.47,8.47,0,1,1,9.68,96Zm18-23.23A1.57,1.57,0,1,0,26,71.17a1.61,1.61,0,0,0,1.63,1.59Zm-1,24.7h2V77.58h-2V97.46ZM37,81.47V77.58H35V97.46h2v-11c0-5.09,3.31-7.2,6.81-7.2V77.3A6.88,6.88,0,0,0,37,81.47Zm18.87-4.33A10.15,10.15,0,0,0,45.3,87.52c0,6,4.44,10.38,10.72,10.38a10.11,10.11,0,0,0,8.88-4.49l-1.79-1c-1.18,2.11-3.71,3.62-7,3.62-4.65,0-8.15-2.94-8.64-7.44H65.88c0-.31,0-.63,0-1,0-5.45-3.87-10.46-10.07-10.46Zm0,1.91c4,0,7.5,2.7,7.95,7.55H47.42a8.13,8.13,0,0,1,8.43-7.55ZM80,97.9a10.06,10.06,0,0,0,9-5.05l-1.71-1A8.18,8.18,0,0,1,80,96a8.47,8.47,0,1,1,0-16.94,7.77,7.77,0,0,1,7.21,4.13l1.68-1A9.58,9.58,0,0,0,80,77.14c-6.15,0-10.72,4.49-10.72,10.38S73.87,97.9,80,97.9Zm24-18.37v-2H97.91V72l-2.08.59v5H91.35v2h4.48V92.45c0,4.54,2.82,5.81,8.15,5V95.67c-4.15.36-6.07.28-6.07-3.22V79.53Zm5.91-6.77a1.57,1.57,0,1,0-1.63-1.59,1.61,1.61,0,0,0,1.63,1.59Zm-1,24.7h2V77.58h-2V97.46Zm17.64.44A10.39,10.39,0,1,0,115.8,87.52,10.43,10.43,0,0,0,126.52,97.9Zm0-1.91a8.47,8.47,0,1,1,8.6-8.47,8.47,8.47,0,0,1-8.6,8.47Zm24.9-18.85a7.71,7.71,0,0,0-7.29,4.21V77.58h-2V97.46h2V87c0-5.37,3.14-7.91,7.13-7.91,3.83,0,6,2.38,6,6V97.46h2.08V85.09c0-4.81-3.06-8-7.91-8Zm15,5.65c0-2.39,2.24-3.74,4.89-3.74a5.35,5.35,0,0,1,5.22,3l1.71-.95c-1.1-2.43-3.63-4-6.93-4-4.15,0-6.93,2.5-6.93,5.65,0,7.16,12.35,4,12.35,9.46,0,2.51-2.4,3.74-5.25,3.74-3.06,0-5.26-1.35-6-3.5l-1.75,1c1,2.54,3.67,4.41,7.75,4.41,4.36,0,7.29-2.39,7.29-5.65,0-7.28-12.35-4.13-12.35-9.46Z" style="fill: #808285"/>
    <path d="M60.25,39.09A7.68,7.68,0,0,0,53,43.31V39.53h-2V59.42h2V48.92C53,43.55,56.09,41,60.09,41c3.83,0,6,2.39,6,6V59.42h2.08V47.05c0-4.82-3.06-8-7.91-8Zm22.82,0A10.16,10.16,0,0,0,72.52,49.47c0,6,4.44,10.38,10.72,10.38a10.11,10.11,0,0,0,8.88-4.49l-1.79-1c-1.18,2.11-3.71,3.62-7,3.62-4.65,0-8.15-2.94-8.64-7.43H93.1c0-.32,0-.64,0-1,0-5.45-3.87-10.46-10.07-10.46Zm0,1.91c4,0,7.5,2.7,8,7.56H74.64A8.14,8.14,0,0,1,83.07,41Zm38.76-1.47-5.42,17.3-5.7-17.3h-2.12l-5.71,17.3-5.42-17.3H95.3l6.44,19.89H104l5.67-17,5.66,17h2.24L124,39.53Z" style="fill: #808285"/>
    <polyline points="251 59.1 132.81 59.1 191.9 0 251 59.1" style="fill: #3189a1"/>
    <polyline points="191.9 118.19 191.9 59.1 251 59.1 251 59.1 191.9 118.19" style="fill: #feca7a"/>
    <polyline points="251 59.1 191.9 59.1 191.9 0 251 59.1" style="fill: #cfac6c"/>
  </g>
</svg>
